<svg width="65" height="65" viewBox="0 0 65 65" fill="none" xmlns="http://www.w3.org/2000/svg">
<path d="M62.474 48.4676L51.3029 51.4567L48.353 62.4693C48.1534 63.1936 47.7225 63.8329 47.126 64.2898C46.5295 64.7466 45.8 64.9959 45.0486 64.9998H45.0424C44.7459 64.9998 44.4485 64.9597 44.16 64.8805L2.55645 53.7317C1.6825 53.4921 0.938576 52.9169 0.486641 52.1315C0.0347065 51.346 -0.0886451 50.4138 0.143441 49.5378L8.9131 16.7974L1.64735 9.52988C0.95207 8.83813 0.451101 7.97557 0.194774 7.02888C-0.0615537 6.08219 -0.0642102 5.08471 0.187071 4.13666C0.441027 3.18914 0.939894 2.32514 1.63354 1.63149C2.32719 0.937843 3.19119 0.438976 4.13871 0.18502C5.0868 -0.065574 6.08414 -0.0622264 7.03052 0.194727C7.9769 0.45168 8.83899 0.953187 9.53015 1.64886L13.472 5.58447C14.1174 5.35925 14.8158 5.33473 15.4754 5.51413L31.55 9.82372L50.7321 4.67714C51.6084 4.45228 52.5378 4.57997 53.3209 5.0328C54.1041 5.48562 54.6784 6.22748 54.9206 7.09906L57.5295 16.8384C58.287 17.1593 58.9034 17.7425 59.2657 18.4811C59.6279 19.2196 59.7118 20.0641 59.5018 20.8595L59.0512 22.5334L64.8852 44.2808C65.116 45.1556 64.9921 46.0861 64.5406 46.8701C64.0891 47.654 63.3464 48.2281 62.474 48.4676ZM54.6865 16.0236L52.4747 7.75797C52.4137 7.52915 52.2645 7.33383 52.0597 7.21481C51.8545 7.09677 51.6108 7.06506 51.3821 7.12666H51.3812L36.441 11.1335L54.6865 16.0236ZM62.4357 44.9353L57.7379 27.428L52.0606 48.6269L61.816 46.0189C62.0409 45.9556 62.232 45.8064 62.3479 45.6036C62.4638 45.4007 62.4954 45.1603 62.4357 44.9344V44.9353ZM8.63529 12.9357L12.9351 8.63413L11.6796 7.37865L7.37892 11.6811L8.63529 12.9357ZM29.6846 25.3881L14.7257 10.4247L13.4711 11.6802L16.3828 14.5919C16.5985 14.8336 16.7136 15.1488 16.7044 15.4727C16.6951 15.7966 16.5624 16.1047 16.3332 16.3339C16.1041 16.563 15.796 16.6958 15.4721 16.705C15.1482 16.7142 14.833 16.5991 14.5912 16.3834L11.6796 13.4717L10.425 14.7272L25.3857 29.6897L26.6412 28.4342L17.6373 19.4304C17.5193 19.3132 17.4258 19.1737 17.362 19.0201C17.2983 18.8665 17.2657 18.7018 17.266 18.5355C17.266 18.1971 17.3969 17.8784 17.6365 17.6397C17.7537 17.5216 17.8933 17.4279 18.0471 17.3642C18.2008 17.3005 18.3657 17.2679 18.5322 17.2684C18.8706 17.2684 19.1884 17.3993 19.4271 17.6389L28.4291 26.6445L29.6846 25.3881ZM32.5143 32.523L30.9178 27.7326L27.7266 30.9273L32.5143 32.523ZM2.67933 50.8779C2.79776 51.0827 2.99008 51.2296 3.21981 51.291L44.8198 62.4363C44.9325 62.4667 45.05 62.4746 45.1658 62.4595C45.2815 62.4444 45.3931 62.4066 45.4941 62.3483C45.5952 62.29 45.6838 62.2123 45.7548 62.1197C45.8258 62.0271 45.8778 61.9213 45.9079 61.8086L57.0505 20.1997C57.0811 20.0869 57.0891 19.9692 57.074 19.8534C57.0588 19.7375 57.0209 19.6258 56.9623 19.5247C56.9042 19.4233 56.8265 19.3345 56.7337 19.2634C56.6409 19.1924 56.5349 19.1404 56.4219 19.1107L16.2198 8.3394L32.363 24.4915C32.4849 24.6179 32.5802 24.7675 32.6408 24.9286C32.655 24.9509 32.6657 24.9732 32.6719 24.9972L35.0369 32.0804C35.0832 32.2273 35.1152 32.3787 35.133 32.531L46.9568 35.7053C47.2531 35.7851 47.5105 35.9696 47.6811 36.2248C47.8517 36.4799 47.924 36.7882 47.8846 37.0926C47.8606 37.2712 47.7988 37.4427 47.7034 37.5956C47.6079 37.7484 47.481 37.8792 47.331 37.9792C47.1811 38.0792 47.0115 38.1461 46.8337 38.1755C46.6559 38.2049 46.4738 38.196 46.2997 38.1495L33.9969 34.846C33.7099 35.0145 33.3904 35.12 33.0595 35.1553C32.7287 35.1906 32.3941 35.155 32.078 35.0508L24.9841 32.6815C24.9671 32.6757 24.9509 32.6676 24.936 32.6574C24.7692 32.5974 24.6173 32.502 24.4908 32.3778L10.9824 18.8667L2.59118 50.2012C2.56046 50.3139 2.55243 50.4316 2.56756 50.5475C2.58269 50.6634 2.62068 50.7751 2.67933 50.8761V50.8779ZM3.43796 7.73749L5.58919 9.88961L9.88988 5.58892L7.73954 3.43769C7.31497 3.01124 6.77311 2.72077 6.18292 2.60327C5.59274 2.48578 4.98095 2.54656 4.42543 2.7779C3.86852 3.00691 3.39242 3.39657 3.05782 3.8972C2.72322 4.39784 2.54527 4.98677 2.54666 5.58892C2.54488 6.39029 2.86899 7.17386 3.43707 7.73838L3.43796 7.73749ZM49.6476 25.6632L34.3325 21.5584C34.0085 21.4707 33.7327 21.2579 33.5656 20.9667C33.3985 20.6756 33.354 20.33 33.4417 20.006C33.5294 19.682 33.7423 19.4061 34.0334 19.2391C34.3245 19.072 34.6701 19.0274 34.9941 19.1152L50.3038 23.2173C50.6001 23.2976 50.8572 23.4824 51.0278 23.7376C51.1983 23.9927 51.2707 24.301 51.2317 24.6054C51.1908 24.9097 51.0411 25.1889 50.8103 25.3914C50.5795 25.5939 50.2832 25.7059 49.9762 25.7069C49.8649 25.7069 49.7545 25.6917 49.6476 25.6623V25.6632ZM47.9763 31.905L37.5639 29.118C37.4033 29.0749 37.2528 29.0005 37.121 28.8992C36.9892 28.7979 36.8786 28.6717 36.7956 28.5276C36.7126 28.3836 36.6588 28.2246 36.6372 28.0598C36.6156 27.895 36.6267 27.7275 36.6699 27.5669C36.713 27.4064 36.7874 27.2559 36.8887 27.1241C36.99 26.9923 37.1162 26.8817 37.2603 26.7987C37.4043 26.7157 37.5633 26.6619 37.7281 26.6403C37.893 26.6187 38.0604 26.6298 38.221 26.673L48.6299 29.4582C48.9262 29.5383 49.1835 29.7231 49.354 29.9783C49.5246 30.2335 49.597 30.5419 49.5577 30.8463C49.5168 31.1505 49.3673 31.4295 49.1367 31.632C48.9061 31.8345 48.61 31.9466 48.3031 31.9478C48.1927 31.9478 48.0823 31.9335 47.9763 31.905ZM10.433 34.5745C10.3735 34.3572 10.3729 34.128 10.4315 33.9105C10.4901 33.6929 10.6056 33.495 10.7662 33.337C10.9268 33.179 11.1267 33.0667 11.3452 33.0118C11.5636 32.9568 11.7928 32.9611 12.0091 33.0243L15.1273 33.8586C15.4236 33.9391 15.6807 34.1241 15.8513 34.3794C16.0218 34.6347 16.0942 34.9431 16.0551 35.2476C16.0146 35.5521 15.865 35.8315 15.6341 36.034C15.4032 36.2366 15.1067 36.3485 14.7996 36.3491C14.6887 36.3491 14.5783 36.3347 14.471 36.3063L11.3475 35.4684C11.1294 35.4141 10.9297 35.3026 10.769 35.1455C10.6083 34.9884 10.4923 34.7913 10.433 34.5745ZM19.8874 36.4443C19.9715 36.1352 20.1691 35.8692 20.4408 35.6994C20.7126 35.5297 21.0384 35.4689 21.353 35.529L21.3655 35.5317L45.2873 41.9426C45.6111 42.0299 45.8872 42.2419 46.0551 42.5323C46.223 42.8227 46.269 43.1677 46.183 43.4919C46.11 43.7603 45.9507 43.9972 45.7298 44.1661C45.5089 44.335 45.2386 44.4267 44.9605 44.4269H44.9596C44.8483 44.4269 44.737 44.4126 44.6301 44.3824L20.6986 37.9696C20.396 37.8643 20.1443 37.6485 19.9941 37.3655C19.8438 37.0825 19.806 36.7531 19.8883 36.4434L19.8874 36.4443ZM8.78577 40.16C8.8733 39.8372 9.0846 39.5619 9.37381 39.3939C9.66302 39.2258 10.0068 39.1786 10.3306 39.2625L13.4542 40.0995C13.751 40.1793 14.0087 40.3641 14.1795 40.6195C14.3503 40.875 14.4225 41.1838 14.3829 41.4885C14.3422 41.7926 14.1927 42.0717 13.962 42.2741C13.7313 42.4764 13.4351 42.5883 13.1283 42.5891H13.1212C13.0125 42.5891 12.9039 42.5739 12.798 42.5445L9.67707 41.7102C9.35408 41.6216 9.07919 41.409 8.91225 41.1186C8.74531 40.8283 8.69985 40.4837 8.78577 40.16ZM18.1191 43.3263C18.0594 43.1085 18.0589 42.8787 18.1177 42.6607C18.1765 42.4427 18.2925 42.2443 18.4535 42.086C18.6146 41.9278 18.815 41.8154 19.0341 41.7604C19.2531 41.7055 19.4828 41.71 19.6995 41.7734L43.616 48.1844C43.912 48.2645 44.169 48.449 44.3395 48.7038C44.51 48.9587 44.5826 49.2666 44.5438 49.5708C44.5029 49.8752 44.3533 50.1545 44.1225 50.3571C43.8917 50.5597 43.5954 50.672 43.2883 50.6731C43.1779 50.6731 43.0657 50.658 42.9588 50.6286L19.0388 44.2176C18.8202 44.1642 18.6197 44.0534 18.458 43.8967C18.2964 43.7401 18.1794 43.5432 18.1191 43.3263Z" fill="black"/>
</svg>
