<svg width="65" height="65" viewBox="0 0 65 65" fill="none" xmlns="http://www.w3.org/2000/svg">
<g clip-path="url(#clip0_247_612)">
<path d="M8.33331 45.834H0.833374V61.6668L9.16673 60.8323L8.33331 45.834Z" fill="#FF6D6D"/>
<path d="M55.8333 5.83252L56.6667 21.6662H64.1666V5.83252H55.8333Z" fill="#F3B256"/>
<path d="M19.1669 0.83252L5.00049 15.8326L29.1662 39.1658L41.6667 26.6665L35.8327 21.6659L28.3328 19.9987L24.1666 15.8326L25 12.4991L29.9997 11.6664L19.1669 0.83252Z" fill="#B8E2E4"/>
<path d="M21.9309 50.0018C21.9308 50.1681 21.8975 50.3329 21.8329 50.4866C21.7542 50.6783 21.6287 50.8478 21.4676 50.9802C21.3066 51.1126 21.1149 51.2037 20.9095 51.2455C20.663 51.2967 20.4065 51.2716 20.175 51.1735C19.9813 51.093 19.8109 50.9666 19.6788 50.8053C19.5467 50.6441 19.4572 50.4531 19.4181 50.2495C19.3502 49.9213 19.417 49.5799 19.6037 49.3002C19.7905 49.0205 20.082 48.8252 20.4145 48.7571C20.6603 48.7067 20.9158 48.7321 21.1464 48.83C21.3806 48.9242 21.5796 49.0874 21.7163 49.2973C21.8563 49.5062 21.931 49.7512 21.9309 50.0018ZM55.1592 57.0569C55.1257 57.0722 55.0916 57.086 55.0568 57.0982L35.5069 64.0988C34.188 64.6966 32.753 65.0039 31.3015 64.9992C29.4664 64.9992 27.9785 64.5293 27.2163 64.2297L27.1611 64.206C23.1943 62.422 20.9906 61.1519 19.5339 60.3113C17.6391 59.2186 16.9606 58.8268 14.8966 58.6476V59.013C14.8966 59.714 14.3285 60.2823 13.6269 60.2823H10.0884V61.3785C10.0884 62.0803 9.51941 62.6478 8.81866 62.6478H1.26976C1.10189 62.6467 0.935866 62.6131 0.781186 62.5487C0.626507 62.4844 0.486199 62.3906 0.368282 62.2727C0.250365 62.1548 0.157149 62.0152 0.093963 61.8617C0.0307767 61.7083 -0.00114193 61.5441 3.12018e-05 61.3785V45.3701C3.12018e-05 44.67 0.568113 44.1017 1.26976 44.1017H13.0205C14.6989 41.6211 17.6328 39.3453 20.9496 39.3453C25.6955 39.3453 28.2305 42.0217 29.039 43.0687L38.7623 46.3679L38.7952 46.3802C40.5983 47.0495 41.8743 48.3671 42.3854 49.9165L51.2298 47.4703C54.4736 46.3626 57.2134 47.3728 58.3825 50.1072L58.3976 50.1449C59.8116 53.7735 57.0282 56.197 55.1592 57.0569ZM7.54893 46.6402H2.53859V60.1084H7.54715L7.54893 46.6402ZM12.3572 46.6402H10.0866V57.7429H12.3572V46.6402ZM56.0398 51.0865C55.2349 49.2332 53.4274 49.4027 52.0508 49.8726L42.5189 52.5139C42.3725 53.2077 42.0773 53.8625 41.6531 54.4344C41.2289 55.0064 40.6856 55.4821 40.0596 55.8298C39.4866 56.1511 38.8542 56.356 38.1997 56.4321C37.5451 56.5083 36.8817 56.4543 36.2487 56.2734L36.213 56.2628L24.8185 52.6509C24.496 52.5459 24.2284 52.3198 24.0738 52.0216C23.9191 51.7233 23.8898 51.377 23.9922 51.0576C24.0409 50.8995 24.1209 50.7525 24.2277 50.6251C24.3344 50.4978 24.4657 50.3926 24.614 50.3157C24.7623 50.2388 24.9245 50.1918 25.0914 50.1772C25.2582 50.1627 25.4264 50.181 25.586 50.231L36.9601 53.8359C37.5905 54.0098 38.2512 53.9316 38.8237 53.6119C39.1092 53.4532 39.36 53.2403 39.5617 52.9855C39.7635 52.7307 39.9121 52.4391 39.9991 52.1274C40.3909 50.7519 39.5387 49.372 37.9271 48.7668L27.8378 45.3411C27.5568 45.2457 27.3186 45.0561 27.1647 44.8053C27.0926 44.6911 25.2645 41.8847 20.9496 41.8847C18.4333 41.8847 16.1004 43.9032 14.8966 45.876V56.1021C17.7237 56.3357 18.7254 56.9137 20.8027 58.1118C22.2968 58.9726 24.3421 60.1523 28.1735 61.8765C29.1877 62.2718 31.7743 63.0202 34.4954 61.7685L34.5471 61.7465C34.564 61.7404 34.5872 61.7307 34.6041 61.7255L54.145 54.7274C54.7078 54.4595 56.8724 53.2623 56.0389 51.0865H56.0398ZM45.6069 16.9449C45.6071 17.2787 45.474 17.5991 45.2363 17.8368C44.9986 18.0744 44.6755 18.21 44.3372 18.2141C44 18.212 43.6773 18.0785 43.4396 17.8426C43.3209 17.7246 43.2276 17.5842 43.1654 17.4297C43.0927 17.2572 43.0595 17.0711 43.0681 16.8845C43.0768 16.6979 43.127 16.5155 43.2152 16.3502C43.3035 16.185 43.4276 16.041 43.5788 15.9285C43.7299 15.816 43.9043 15.7377 44.0896 15.6993C44.2533 15.6666 44.4219 15.6666 44.5856 15.6994C44.7492 15.7321 44.9045 15.7969 45.0424 15.8899C45.1825 15.9814 45.3017 16.1008 45.3923 16.2404C45.5326 16.4492 45.6073 16.6943 45.6069 16.9449ZM65 5.5681V21.5765C65 22.2775 64.4319 22.8458 63.7303 22.8458H51.9795C50.3011 25.3255 47.3672 27.6013 44.0504 27.6013C43.6889 27.6013 43.3408 27.5855 43.006 27.5574L30.0986 40.4643C29.5955 40.9676 28.69 40.8508 28.3035 40.4643L4.14667 16.3054C3.90564 16.067 3.77028 15.744 3.77028 15.4073C3.77028 15.0705 3.90564 14.7475 4.14667 14.5091L18.2819 0.370733C18.399 0.252892 18.5387 0.159275 18.6929 0.0953644C18.8471 0.0314541 19.0127 -0.00146484 19.1799 -0.00146484C19.3472 -0.00146484 19.5127 0.0314541 19.6669 0.0953644C19.8211 0.159275 19.9608 0.252892 20.0779 0.370733L24.3839 4.67742L29.4922 2.84776C33.1073 1.20958 36.4908 2.20918 37.7819 2.71688L37.838 2.7406C41.8048 4.52458 44.0086 5.79472 45.4653 6.63533C47.3601 7.72803 48.0386 8.11979 50.1026 8.29986V7.93445C50.1026 7.23263 50.6706 6.66431 51.3723 6.66431H54.9117V5.56898C54.9117 4.86803 55.4798 4.29972 56.1814 4.29972H63.7294C64.4311 4.29972 64.9991 4.86803 64.9991 5.56898L65 5.5681ZM16.2874 5.95722C17.1476 6.48952 18.1413 6.77411 19.1813 6.77411C20.2044 6.77659 21.2074 6.49338 22.0742 5.95722L19.1804 3.06384L16.2874 5.95722ZM10.5487 15.4077C10.5487 14.3677 10.2638 13.3734 9.73222 12.5134L6.83839 15.4068L9.73222 18.3002C10.2647 17.4394 10.5487 16.4451 10.5487 15.4068V15.4077ZM32.094 34.8787C31.2264 34.3442 30.224 34.0608 29.2011 34.0608C28.1781 34.0608 27.1758 34.3442 26.3081 34.8787L29.2019 37.7703L32.094 34.8787ZM36.8221 30.1495C36.1601 29.2264 35.6989 28.1782 35.4675 27.0708C35.2361 25.9633 35.2395 24.8206 35.4776 23.7145L31.1911 22.259C30.8676 23.496 30.2179 24.6265 29.3079 25.5354C28.6404 26.2061 27.8441 26.7388 26.9654 27.1023C26.0868 27.4658 25.1435 27.6527 24.1907 27.6523C23.2379 27.6527 22.2946 27.4658 21.416 27.1023C20.5373 26.7388 19.741 26.2061 19.0735 25.5354C16.2527 22.7132 16.2527 18.1219 19.0735 15.2997C20.1038 14.2674 21.4291 13.5702 22.872 13.3013C23.3166 12.3802 24.0391 11.6172 24.9404 11.1168C25.469 10.8208 26.0482 10.6231 26.6491 10.5336L23.9031 7.78688C22.536 8.78236 20.8805 9.3176 19.1813 9.3135C17.4817 9.31785 15.8259 8.7826 14.4585 7.78688L11.5611 10.6838C12.5603 12.0609 13.0948 13.7133 13.0891 15.4068C13.0953 17.1 12.561 18.7522 11.562 20.129L24.4801 33.0482C25.8494 32.0569 27.5035 31.5223 29.2019 31.5223C30.9004 31.5223 32.5545 32.0569 33.9238 33.0482L36.8221 30.1495ZM22.401 16.0744C21.8267 16.311 21.306 16.6583 20.8695 17.0959C19.0379 18.9274 19.0379 21.9077 20.8695 23.74C21.303 24.175 21.82 24.5206 22.3903 24.7564C22.9606 24.9923 23.5728 25.1138 24.1912 25.1138C24.8096 25.1138 25.4218 24.9923 25.9921 24.7564C26.5624 24.5206 27.0793 24.175 27.5128 23.74C28.1466 23.1071 28.5851 22.3096 28.7772 21.4404L26.2387 20.5787L26.2048 20.5664C24.0393 19.7627 22.6343 18.0235 22.401 16.0744ZM40.0792 26.8916C39.2829 26.585 38.5304 26.1776 37.8407 25.6795C37.8852 26.6105 38.1613 27.5214 38.651 28.3199L40.0792 26.8916ZM50.1035 10.8436C47.2764 10.6109 46.2747 10.0329 44.1974 8.83479C42.7032 7.9731 40.658 6.79344 36.8265 5.07006C35.8115 4.67479 33.2257 3.92641 30.5046 5.17722C30.4868 5.18513 30.4699 5.19303 30.453 5.19918C30.4486 5.2012 30.4442 5.20296 30.4396 5.20445L30.3951 5.22202L26.3704 6.66256L31.054 11.347L31.0558 11.3496L31.1359 11.4286L40.1807 14.2948C40.5036 14.3996 40.7715 14.6258 40.9263 14.9243C41.0812 15.2227 41.1105 15.5694 41.0079 15.889C40.9591 16.0471 40.879 16.194 40.7722 16.3213C40.6654 16.4485 40.5341 16.5537 40.3859 16.6305C40.2377 16.7074 40.0754 16.7545 39.9086 16.7691C39.7418 16.7837 39.5737 16.7655 39.4141 16.7156L28.04 13.1107C27.7299 13.024 27.4054 12.9991 27.0854 13.0374C26.7654 13.0757 26.4564 13.1765 26.1763 13.3338C25.8909 13.4925 25.6402 13.7052 25.4385 13.9598C25.2367 14.2144 25.0881 14.5059 25.001 14.8174V14.8201C24.6101 16.1956 25.4613 17.5747 27.0721 18.1799L37.1658 21.6055C37.4756 21.7109 37.7178 21.9235 37.8656 22.1879C37.8826 22.2116 37.9921 22.3565 38.0188 22.3943C38.5041 23.0109 39.9795 24.5701 42.7202 24.968L42.7255 24.9688C43.1387 25.0286 43.5803 25.062 44.0504 25.062C46.5658 25.062 48.8996 23.0426 50.1035 21.0697V10.8436ZM54.9126 9.20371H52.642V20.3064H54.9126V9.20371ZM62.4606 6.83823H57.452V20.3064H62.4606V6.83823Z" fill="black"/>
</g>
<defs>
<clipPath id="clip0_247_612">
<rect width="65" height="65" fill="white"/>
</clipPath>
</defs>
</svg>
